<svg width="124" height="182" viewBox="0 0 124 182" fill="none" xmlns="http://www.w3.org/2000/svg">
<path d="M3.2 22C3.2 22.27 3.2225 22.5375 3.265 22.8H0.3C0.135 22.8 0 22.665 0 22.5V21.5C0 21.335 0.135 21.2 0.3 21.2H3.265C3.2225 21.4625 3.2 21.73 3.2 22ZM15.7 21.2H12.735C12.78 21.4625 12.8 21.73 12.8 22C12.8 22.27 12.7775 22.5375 12.735 22.8H15.7C15.865 22.8 16 22.665 16 22.5V21.5C16 21.335 15.865 21.2 15.7 21.2ZM8 19.2C7.2525 19.2 6.55 19.4925 6.02 20.02C5.49 20.55 5.2 21.2525 5.2 22C5.2 22.7475 5.49 23.45 6.02 23.98C6.55 24.5075 7.2525 24.8 8 24.8C8.7475 24.8 9.45 24.5075 9.98 23.98C10.51 23.45 10.8 22.7475 10.8 22C10.8 21.2525 10.51 20.55 9.98 20.02C9.45 19.4925 8.7475 19.2 8 19.2ZM8 18C10.21 18 12 19.79 12 22C12 24.21 10.21 26 8 26C5.79 26 4 24.21 4 22C4 19.79 5.79 18 8 18Z" fill="black"/>
<path d="M22.6562 44C22.6562 49.8853 17.8853 54.6562 12 54.6562C6.1147 54.6562 1.34375 49.8853 1.34375 44C1.34375 38.1147 6.1147 33.3438 12 33.3438C17.8853 33.3438 22.6562 38.1147 22.6562 44ZM10.7674 49.6424L18.6736 41.7361C18.9421 41.4677 18.9421 41.0324 18.6736 40.7639L17.7014 39.7916C17.4329 39.5231 16.9976 39.5231 16.7291 39.7916L10.2812 46.2394L7.2709 43.2291C7.00243 42.9606 6.56712 42.9606 6.29861 43.2291L5.32635 44.2014C5.05788 44.4698 5.05788 44.9051 5.32635 45.1736L9.7951 49.6424C10.0636 49.9109 10.4989 49.9109 10.7674 49.6424Z" fill="#00B341"/>
<path d="M64 33.3438C58.1133 33.3438 53.3438 38.1133 53.3438 44C53.3438 49.8867 58.1133 54.6562 64 54.6562C69.8867 54.6562 74.6562 49.8867 74.6562 44C74.6562 38.1133 69.8867 33.3438 64 33.3438ZM69.225 46.7973C69.427 46.9992 69.427 47.3258 69.225 47.5277L67.5234 49.225C67.3215 49.427 66.9949 49.427 66.793 49.225L64 46.4062L61.2027 49.225C61.0008 49.427 60.6742 49.427 60.4723 49.225L58.775 47.5234C58.573 47.3215 58.573 46.9949 58.775 46.793L61.5938 44L58.775 41.2027C58.573 41.0008 58.573 40.6742 58.775 40.4723L60.4766 38.7707C60.6785 38.5687 61.0051 38.5687 61.207 38.7707L64 41.5938L66.7973 38.775C66.9992 38.573 67.3258 38.573 67.5277 38.775L69.2293 40.4766C69.4312 40.6785 69.4312 41.0051 69.2293 41.207L66.4062 44L69.225 46.7973Z" fill="#FF3333"/>
<path d="M38 33C31.9234 33 27 37.9234 27 44C27 50.0766 31.9234 55 38 55C44.0766 55 49 50.0766 49 44C49 37.9234 44.0766 33 38 33ZM42.1024 46.8831L41.2153 47.9919C41.1571 48.0647 41.0851 48.1253 41.0034 48.1703C40.9218 48.2153 40.8321 48.2437 40.7395 48.254C40.6468 48.2643 40.5531 48.2562 40.4636 48.2303C40.3741 48.2044 40.2905 48.161 40.2177 48.1028L37.246 45.8975C37.0383 45.7313 36.8707 45.5204 36.7556 45.2807C36.6404 45.0409 36.5806 44.7783 36.5806 44.5123V37.6129C36.5806 37.4247 36.6554 37.2442 36.7885 37.1111C36.9216 36.978 37.1021 36.9032 37.2903 36.9032H38.7097C38.8979 36.9032 39.0784 36.978 39.2115 37.1111C39.3446 37.2442 39.4194 37.4247 39.4194 37.6129V44L41.9919 45.8851C42.0647 45.9433 42.1254 46.0154 42.1703 46.0971C42.2153 46.1787 42.2437 46.2685 42.254 46.3612C42.2642 46.4539 42.2561 46.5477 42.2301 46.6372C42.2041 46.7268 42.1607 46.8103 42.1024 46.8831Z" fill="#FF9A00"/>
<path d="M44.125 22C46.0582 22 47.625 20.4332 47.625 18.5C47.625 16.5668 46.0582 15 44.125 15C42.1918 15 40.625 16.5668 40.625 18.5C40.625 20.4332 42.1918 22 44.125 22ZM46.575 22.875H46.1184C45.5113 23.1539 44.8359 23.3125 44.125 23.3125C43.4141 23.3125 42.7414 23.1539 42.1316 22.875H41.675C39.6461 22.875 38 24.5211 38 26.55V27.6875C38 28.4121 38.5879 29 39.3125 29H48.9375C49.6621 29 50.25 28.4121 50.25 27.6875V26.55C50.25 24.5211 48.6039 22.875 46.575 22.875Z" fill="black"/>
<path d="M23.6081 23H22.3626C22.1571 23 21.989 22.8313 21.989 22.625V21.375C21.989 21.1687 22.1571 21 22.3626 21H23.6081C23.8136 21 23.9817 21.1687 23.9817 21.375V22.625C23.9817 22.8313 23.8136 23 23.6081 23ZM26.9707 22.625V21.375C26.9707 21.1687 26.8026 21 26.5971 21H25.3516C25.1462 21 24.978 21.1687 24.978 21.375V22.625C24.978 22.8313 25.1462 23 25.3516 23H26.5971C26.8026 23 26.9707 22.8313 26.9707 22.625ZM29.9597 22.625V21.375C29.9597 21.1687 29.7916 21 29.5861 21H28.3407C28.1352 21 27.967 21.1687 27.967 21.375V22.625C27.967 22.8313 28.1352 23 28.3407 23H29.5861C29.7916 23 29.9597 22.8313 29.9597 22.625ZM26.9707 25.625V24.375C26.9707 24.1687 26.8026 24 26.5971 24H25.3516C25.1462 24 24.978 24.1687 24.978 24.375V25.625C24.978 25.8313 25.1462 26 25.3516 26H26.5971C26.8026 26 26.9707 25.8313 26.9707 25.625ZM23.9817 25.625V24.375C23.9817 24.1687 23.8136 24 23.6081 24H22.3626C22.1571 24 21.989 24.1687 21.989 24.375V25.625C21.989 25.8313 22.1571 26 22.3626 26H23.6081C23.8136 26 23.9817 25.8313 23.9817 25.625ZM29.9597 25.625V24.375C29.9597 24.1687 29.7916 24 29.5861 24H28.3407C28.1352 24 27.967 24.1687 27.967 24.375V25.625C27.967 25.8313 28.1352 26 28.3407 26H29.5861C29.7916 26 29.9597 25.8313 29.9597 25.625ZM32.9487 17.5V28.5C32.9487 29.3281 32.2793 30 31.4542 30H20.4945C19.6694 30 19 29.3281 19 28.5V17.5C19 16.6719 19.6694 16 20.4945 16H21.989V14.375C21.989 14.1688 22.1571 14 22.3626 14H23.6081C23.8136 14 23.9817 14.1688 23.9817 14.375V16H27.967V14.375C27.967 14.1688 28.1352 14 28.3407 14H29.5861C29.7916 14 29.9597 14.1688 29.9597 14.375V16H31.4542C32.2793 16 32.9487 16.6719 32.9487 17.5ZM31.4542 28.3125V19H20.4945V28.3125C20.4945 28.4156 20.5786 28.5 20.6813 28.5H31.2674C31.3701 28.5 31.4542 28.4156 31.4542 28.3125Z" fill="black"/>
<path d="M67.7801 19.75L68.4846 19.0437C68.6311 18.8969 68.6311 18.6594 68.4846 18.5125L67.9547 17.9813C67.8082 17.8344 67.5713 17.8344 67.4248 17.9813L66.7795 18.6281C65.81 17.7688 64.5849 17.1938 63.232 17.0406V15.5H64.1049C64.3106 15.5 64.4789 15.3312 64.4789 15.125V14.375C64.4789 14.1688 64.3106 14 64.1049 14H60.8629C60.6572 14 60.4889 14.1688 60.4889 14.375V15.125C60.4889 15.3312 60.6572 15.5 60.8629 15.5H61.7358V17.0438C58.5063 17.4156 56 20.1625 56 23.5C56 27.0906 58.9022 30 62.4839 30C66.0656 30 68.9678 27.0906 68.9678 23.5C68.9678 22.1031 68.5283 20.8094 67.7801 19.75ZM62.4839 28.5C59.7282 28.5 57.4963 26.2625 57.4963 23.5C57.4963 20.7375 59.7282 18.5 62.4839 18.5C65.2396 18.5 67.4715 20.7375 67.4715 23.5C67.4715 26.2625 65.2396 28.5 62.4839 28.5ZM62.858 25H62.1098C61.9041 25 61.7358 24.8313 61.7358 24.625V20.375C61.7358 20.1687 61.9041 20 62.1098 20H62.858C63.0637 20 63.232 20.1687 63.232 20.375V24.625C63.232 24.8313 63.0637 25 62.858 25Z" fill="black"/>
<path d="M8.77548 3.03097C8.01915 2.32277 7.03761 1.93456 5.99632 1.93548C4.12234 1.93713 2.50452 3.22205 2.05783 5.00444C2.02531 5.13419 1.90972 5.22581 1.77595 5.22581H0.389589C0.208185 5.22581 0.070379 5.06112 0.103935 4.88284C0.627411 2.103 3.06806 0 6 0C7.60761 0 9.06752 0.632322 10.1447 1.66173L11.0088 0.797661C11.3746 0.431879 12 0.690944 12 1.20825V4.45161C12 4.7723 11.74 5.03226 11.4194 5.03226H8.17599C7.65869 5.03226 7.39962 4.40683 7.7654 4.04102L8.77548 3.03097ZM0.580645 6.96774H3.82401C4.34131 6.96774 4.60038 7.59317 4.2346 7.95898L3.22452 8.96906C3.98085 9.67727 4.96246 10.0655 6.00377 10.0645C7.87679 10.0628 9.49527 8.7788 9.94217 6.99561C9.97468 6.86586 10.0903 6.77424 10.224 6.77424H11.6104C11.7918 6.77424 11.9296 6.93893 11.8961 7.11721C11.3726 9.897 8.93194 12 6 12C4.39239 12 2.93248 11.3677 1.85528 10.3383L0.99121 11.2023C0.625427 11.5681 0 11.3091 0 10.7917V7.54839C0 7.2277 0.25996 6.96774 0.580645 6.96774Z" fill="black"/>
<path d="M24.2887 5.19256L17.414 1.12827C16.8554 0.79821 16 1.11851 16 1.93488V10.0615C16 10.7939 16.7949 11.2353 17.414 10.8681L24.2887 6.80578C24.902 6.44447 24.9039 5.55388 24.2887 5.19256Z" fill="#111111"/>
<path d="M54.2526 81.2719V93.0895L61.446 100.282C59.799 91.8545 62.2937 83.2577 68.3486 77.2036C73.2653 72.2877 79.7805 69.6481 86.5136 69.6481H86.8042L72.902 83.4999L76.5592 105.44L98.5025 109.097L112.38 95.2206C112.453 102.074 109.813 108.661 104.824 113.649C102.571 115.901 99.9314 117.621 97.1219 118.88C97.5579 119.267 98.0665 119.582 98.4782 119.994L105.914 127.428C108.457 125.903 110.879 124.062 113.034 121.883C122.262 112.656 126.041 99.0468 122.892 86.3816C122.165 83.4272 119.889 81.1024 116.982 80.2791C114.027 79.4557 110.879 80.3033 108.747 82.4585L94.5304 96.6494L86.6831 95.3417L85.3753 87.4956L99.5681 73.3048C101.724 71.1495 102.547 68.0014 101.724 65.0712C100.924 62.141 98.5751 59.8647 95.6203 59.1382C82.7353 55.9416 69.487 59.6225 60.1139 68.97C57.6434 71.4401 55.6332 74.225 53.9862 77.1794L54.2526 77.3731V81.2719ZM25.6731 167.942C22.573 171.042 17.1235 171.042 14.0233 167.942C12.4733 166.393 11.6013 164.31 11.6013 162.13C11.6013 159.927 12.449 157.868 14.0233 156.319L46.5749 123.772L38.3644 115.562L5.81278 148.085C2.05869 151.838 0 156.827 0 162.13C0 167.434 2.05869 172.422 5.81278 176.176C9.56687 179.929 14.5562 181.988 19.8603 181.988C25.1645 181.988 30.1538 179.929 33.9079 176.176L58.3458 151.742C55.9965 147.915 54.6644 143.556 54.5433 139.125L25.6731 167.942ZM121.366 153.824L93.0045 125.467C87.4097 119.873 79.0539 118.783 72.3207 122.101L46.5023 96.2861V81.2477L15.5008 58L0 73.4985L23.2511 104.495H38.2917L64.1102 130.31C60.8162 137.042 61.8819 145.397 67.4767 150.991L95.8383 179.348C99.3744 182.884 105.09 182.884 108.602 179.348L121.366 166.586C124.878 163.051 124.878 157.336 121.366 153.824Z" fill="black" fill-opacity="0.1"/>
<path d="M39.3408 7.44193L38.3102 6.84677C38.4142 6.28548 38.4142 5.70968 38.3102 5.14839L39.3408 4.55323C39.4594 4.48549 39.5126 4.34517 39.4739 4.21452C39.2053 3.35324 38.7481 2.57421 38.1505 1.92582C38.0586 1.82663 37.9086 1.80244 37.7924 1.87018L36.7618 2.46534C36.3287 2.09276 35.8304 1.80485 35.2908 1.61615V0.428247C35.2908 0.292763 35.1965 0.174216 35.0634 0.145183C34.1755 -0.0532029 33.2659 -0.0435256 32.4215 0.145183C32.2884 0.174216 32.1941 0.292763 32.1941 0.428247V1.61856C31.657 1.80969 31.1586 2.0976 30.7231 2.46776L29.6949 1.8726C29.5764 1.80485 29.4288 1.82663 29.3368 1.92824C28.7393 2.57421 28.282 3.35324 28.0135 4.21694C27.9723 4.34759 28.028 4.48791 28.1465 4.55565L29.1772 5.15081C29.0731 5.7121 29.0731 6.2879 29.1772 6.84919L28.1465 7.44435C28.028 7.51209 27.9747 7.65241 28.0135 7.78306C28.282 8.64434 28.7393 9.42337 29.3368 10.0718C29.4288 10.171 29.5788 10.1951 29.6949 10.1274L30.7255 9.53224C31.1586 9.90482 31.657 10.1927 32.1965 10.3814V11.5718C32.1965 11.7072 32.2909 11.8258 32.4239 11.8548C33.3118 12.0532 34.2215 12.0435 35.0658 11.8548C35.1989 11.8258 35.2933 11.7072 35.2933 11.5718V10.3814C35.8304 10.1903 36.3287 9.9024 36.7642 9.53224L37.7949 10.1274C37.9134 10.1951 38.061 10.1734 38.1529 10.0718C38.7505 9.42579 39.2078 8.64676 39.4763 7.78306C39.5126 7.64999 39.4594 7.50967 39.3408 7.44193ZM33.7425 7.93306C32.6755 7.93306 31.807 7.06451 31.807 5.99758C31.807 4.93065 32.6755 4.0621 33.7425 4.0621C34.8094 4.0621 35.6779 4.93065 35.6779 5.99758C35.6779 7.06451 34.8094 7.93306 33.7425 7.93306Z" fill="#111111"/>
<path d="M80 30C75.6 30 72 26.4 72 22C72 17.6 75.6 14 80 14C84.4 14 88 17.6 88 22C88 26.4 84.4 30 80 30ZM84 19.12L82.88 18L80 20.88L77.12 18L76 19.12L78.88 22L76 24.88L77.12 26L80 23.12L82.88 26L84 24.88L81.12 22L84 19.12Z" fill="#CCCCCC"/>
</svg>
